<svg xmlns="http://www.w3.org/2000/svg" viewBox="0 0 60 59.78"><defs><style>.cls-1{fill:#fff;}</style></defs><title>facebook icon</title><g id="Capa_2" data-name="Capa 2"><g id="home2_swipe" data-name="home2 swipe"><path class="cls-1" d="M33.82,59.78V36.38H40.9c.37-2.91.7-5.58,1.07-8.45h-8.1c0-2.49-.15-4.82.06-7.11a2.54,2.54,0,0,1,2.74-2.18c1.76-.05,3.53,0,5.43,0V10.85c-4.08,0-8.25-1-12.16,1.18-3.21,1.81-4.66,4.77-4.85,8.34-.14,2.39,0,4.81,0,7.45H17.9V36.3h7V59.42C14.55,58.43.45,48.12,0,30.68a30,30,0,1,1,33.81,29.1Z"/></g></g></svg>